<?xml version="1.0" encoding="UTF-8" standalone="no"?>
<!-- Created with Inkscape (http://www.inkscape.org/) -->

<svg
   width="124.1769"
   height="32"
   viewBox="0 0 82.784602 21.333333"
   version="1.1"
   id="svg1"
   xmlns="http://www.w3.org/2000/svg"
   xmlns:svg="http://www.w3.org/2000/svg">
  <defs
     id="defs1" />
  <g
     id="layer1"
     transform="matrix(1.02216,0,0,1.0221599,-65.988944,-141.17306)">
    <g
       id="g16"
       style="display:inline;fill:#ffffff;fill-opacity:1"
       transform="matrix(0.52374985,0,0,0.52374985,51.172066,96.425382)">
      <path
         d="m 154.72647,102.8516 c -0.49001,0 -0.87791,0.13602 -1.16375,0.40825 -0.28584,0.27223 -0.42892,0.62638 -0.42892,1.06195 0,0.46279 0.13602,0.82348 0.40825,1.0821 0.28584,0.24501 0.68079,0.36742 1.18442,0.36742 0.50362,0 0.89859,-0.13601 1.18443,-0.40824 0.28584,-0.27223 0.42839,-0.61933 0.42839,-1.04128 0,-0.4764 -0.14255,-0.8371 -0.42839,-1.08211 -0.27223,-0.25861 -0.6672,-0.38809 -1.18443,-0.38809 z m -4.91908,0.85783 a 1.2941946,1.2941946 0 0 0 -1.29398,1.29398 v 12.52792 a 1.2660253,1.2660253 0 0 0 1.24541,1.28674 1.2863147,1.2863147 0 0 0 1.28622,-1.28674 v -12.52792 a 1.2661771,1.2661771 0 0 0 -1.23765,-1.29398 z m 25.0424,4.10363 c -0.80307,0 -1.54513,0.14308 -2.2257,0.42891 -0.66696,0.27223 -1.24529,0.66668 -1.7353,1.18391 -0.4764,0.50362 -0.8507,1.10261 -1.12293,1.79679 -0.27223,0.69418 -0.40824,1.46344 -0.40824,2.30735 0,1.06169 0.23829,2.00726 0.71469,2.83755 0.49,0.81669 1.16354,1.46354 2.02106,1.93994 0.87113,0.47639 1.87162,0.71468 3.00137,0.71468 0.50362,0 1.01394,-0.068 1.53117,-0.20412 0.51723,-0.13611 1.00741,-0.32 1.47019,-0.55139 0.14296,-0.0735 0.28078,-0.15148 0.41393,-0.23358 0.50211,-0.30959 0.57334,-1.03254 0.22996,-1.51101 -0.34447,-0.48001 -0.97755,-0.53767 -1.48621,-0.23875 -0.17354,0.10198 -0.34206,0.18482 -0.5054,0.24805 -0.42195,0.1633 -0.88441,0.24494 -1.38803,0.24494 -0.7214,0 -1.35466,-0.13653 -1.8991,-0.40876 -0.53085,-0.28584 -0.94596,-0.68734 -1.24541,-1.20457 -0.19174,-0.34696 -0.3136,-0.73718 -0.37672,-1.16376 h 7.4812 a 0.44953631,0.44953631 0 0 0 0.45992,-0.42788 c 0.006,-0.24832 0.0159,-0.65167 0.003,-0.89969 -0.0305,-0.59033 -0.14346,-1.14123 -0.33951,-1.65312 -0.23139,-0.65335 -0.57196,-1.21153 -1.02113,-1.67432 -0.44918,-0.4764 -0.98016,-0.8507 -1.59267,-1.12293 -0.61251,-0.27223 -1.27245,-0.40824 -1.98024,-0.40824 z m -45.03032,0.0202 c -1.0753,0 -2.03499,0.24535 -2.8789,0.73536 -0.84391,0.4764 -1.5109,1.13633 -2.00091,1.98024 -0.49001,0.84391 -0.73484,1.80359 -0.73484,2.87889 0,1.0753 0.24483,2.03499 0.73484,2.87889 0.49001,0.84391 1.157,1.51091 2.00091,2.00092 0.84391,0.47639 1.8036,0.71468 2.8789,0.71468 1.06168,0 2.01431,-0.23829 2.85822,-0.71468 0.84391,-0.49001 1.50384,-1.15701 1.98024,-2.00092 0.49001,-0.8439 0.73536,-1.80359 0.73536,-2.87889 0,-1.0753 -0.24535,-2.03498 -0.73536,-2.87889 -0.4764,-0.84391 -1.13633,-1.50384 -1.98024,-1.98024 -0.84391,-0.49001 -1.79654,-0.73536 -2.85822,-0.73536 z m 12.92996,0 c -0.57167,0 -1.12986,0.12293 -1.67432,0.36794 -0.54445,0.24501 -1.01397,0.57144 -1.4087,0.97978 -0.12837,0.12837 -0.23798,0.2636 -0.339,0.40204 l -0.005,-0.28577 a 1.2479841,1.2479841 0 0 0 -1.23403,-1.2392 1.2394048,1.2394048 0 0 0 -1.2392,1.2392 v 8.25583 a 1.2556631,1.2556631 0 0 0 1.24644,1.26504 1.2647533,1.2647533 0 0 0 1.26503,-1.26504 v -5.22759 c 0,-0.32667 0.0609,-0.62642 0.18346,-0.89865 0.13611,-0.27223 0.31293,-0.51052 0.53071,-0.71469 0.23139,-0.21778 0.49689,-0.381 0.79634,-0.48989 0.31306,-0.12245 0.65361,-0.18397 1.02112,-0.18397 0.44917,-0.0136 0.83003,0.0685 1.14309,0.24547 0.31307,0.16334 0.54481,0.4283 0.69453,0.79581 0.14969,0.3539 0.22427,0.80328 0.22427,1.34773 v 5.13198 a 1.2556581,1.2556581 0 0 0 1.25316,1.25884 1.2584451,1.2584451 0 0 0 1.25832,-1.25884 v -5.31544 c 0,-0.98002 -0.14308,-1.79714 -0.42892,-2.45049 -0.27223,-0.65335 -0.68733,-1.14301 -1.2454,-1.46968 -0.54445,-0.32667 -1.22505,-0.49041 -2.04173,-0.49041 z m 21.55889,0 c -0.57168,0 -1.12987,0.12293 -1.67432,0.36794 -0.54446,0.24501 -1.01397,0.57144 -1.4087,0.97978 -0.12848,0.12848 -0.23792,0.26399 -0.339,0.40256 l -0.006,-0.29455 a 1.2479168,1.2479168 0 0 0 -1.24179,-1.23094 1.231237,1.231237 0 0 0 -1.23093,1.23145 v 8.25428 a 1.2557676,1.2557676 0 0 0 1.23713,1.27434 1.2738861,1.2738861 0 0 0 1.27383,-1.27434 v -5.21829 c 0,-0.32667 0.0615,-0.62642 0.18397,-0.89865 0.13612,-0.27223 0.31293,-0.51052 0.53071,-0.71469 0.23139,-0.21778 0.49689,-0.381 0.79634,-0.48989 0.31306,-0.12245 0.65361,-0.18397 1.02112,-0.18397 0.44918,-0.0136 0.83003,0.0685 1.14309,0.24547 0.31306,0.16334 0.54428,0.4283 0.69401,0.79581 0.14969,0.3539 0.22479,0.80328 0.22479,1.34773 v 5.13198 a 1.2556531,1.2556531 0 0 0 1.25264,1.25884 1.2584441,1.2584441 0 0 0 1.25884,-1.25884 v -5.31544 c 0,-0.98002 -0.14308,-1.79714 -0.42892,-2.45049 -0.27223,-0.65335 -0.68733,-1.14301 -1.2454,-1.46968 -0.54445,-0.32667 -1.22505,-0.49041 -2.04173,-0.49041 z m -9.53276,0.22479 a 1.2738891,1.2738891 0 0 0 -1.27434,1.27383 v 8.21448 a 1.2557483,1.2557483 0 0 0 1.24024,1.27176 1.2713584,1.2713584 0 0 0 1.27124,-1.27176 v -8.21448 a 1.2557825,1.2557825 0 0 0 -1.23714,-1.27383 z m 20.07423,1.98024 c 0.43557,0 0.83053,0.0957 1.18442,0.28629 0.36751,0.17695 0.66675,0.42832 0.89814,0.75499 0.23136,0.31307 0.36735,0.68083 0.40825,1.10278 v 0.10232 h -5.44877 c 0.0574,-0.26972 0.13634,-0.51708 0.24236,-0.73536 0.23139,-0.49001 0.57196,-0.86431 1.02113,-1.12293 0.46279,-0.25861 1.02752,-0.38809 1.69447,-0.38809 z m -45.03032,0.0207 c 0.58528,0 1.10215,0.14962 1.55132,0.44907 0.46279,0.28584 0.82349,0.68081 1.08211,1.18443 0.27221,0.50363 0.40169,1.08194 0.38809,1.73529 0.0136,0.63973 -0.11586,1.21152 -0.38809,1.71514 -0.25862,0.50363 -0.61932,0.90513 -1.08211,1.20458 -0.44917,0.29945 -0.96604,0.44907 -1.55132,0.44907 -0.58529,0 -1.11628,-0.14962 -1.59267,-0.44907 -0.46279,-0.29945 -0.8235,-0.70095 -1.08211,-1.20458 -0.25861,-0.50362 -0.38809,-1.07541 -0.38809,-1.71514 0,-0.63974 0.12948,-1.21152 0.38809,-1.71514 0.25861,-0.51723 0.61932,-0.91874 1.08211,-1.20458 0.47639,-0.29945 1.00738,-0.44907 1.59267,-0.44907 z m -8.03052,5.71697 c -0.46279,0 -0.83709,0.15615 -1.12293,0.46922 -0.27223,0.29945 -0.40825,0.68735 -0.40825,1.16375 0,0.51723 0.12948,0.91874 0.38809,1.20458 0.27223,0.28584 0.65308,0.42892 1.14309,0.42892 0.46279,0 0.83054,-0.14962 1.10277,-0.44907 0.28584,-0.31306 0.42892,-0.70803 0.42892,-1.18443 0,-0.53084 -0.13653,-0.93234 -0.40876,-1.20457 -0.25861,-0.28584 -0.63292,-0.4284 -1.12293,-0.4284 z"
         style="font-weight:500;font-size:20.4171px;font-family:Lexend;-inkscape-font-specification:'Lexend Medium';letter-spacing:-0.790019px;fill:#dee2e6;stroke:#343a40;stroke-width:0.8;stroke-dasharray:none;stroke-opacity:1"
         id="path98" />
      <path
         d="m 29.760028,100.20584 c -1.419361,0 -2.730923,-0.242549 -3.934685,-0.727648 -1.203762,-0.503065 -2.254808,-1.194779 -3.153138,-2.075142 -0.880363,-0.880363 -1.563094,-1.90446 -2.048193,-3.072289 -0.485098,-1.185795 -0.727647,-2.470407 -0.727647,-3.853835 0,-1.365462 0.242549,-2.632107 0.727647,-3.799936 0.503065,-1.185796 1.203762,-2.209892 2.102092,-3.072289 0.89833,-0.880363 1.949376,-1.563094 3.153139,-2.048192 1.221729,-0.485099 2.53329,-0.727648 3.934685,-0.727648 0.988163,0 1.940393,0.13475 2.856689,0.404249 0.916297,0.269499 1.74276,0.646797 2.479391,1.131896 0.24445,0.160979 0.475051,0.328884 0.691801,0.503713 0.693359,0.559258 0.641449,1.663932 0.02548,2.30995 -0.604529,0.634018 -1.606288,0.625496 -2.348093,0.131181 -0.102526,-0.06832 -0.20572,-0.133638 -0.30958,-0.195954 -0.521031,-0.323399 -1.069012,-0.574932 -1.643943,-0.754598 -0.574931,-0.179666 -1.167829,-0.269499 -1.778694,-0.269499 -0.89833,0 -1.733777,0.1617 -2.50634,0.485099 -0.754597,0.323399 -1.419362,0.772564 -1.994293,1.347495 -0.556965,0.574931 -0.997146,1.248678 -1.320545,2.021242 -0.323399,0.772564 -0.485098,1.616994 -0.485098,2.533291 0,0.880363 0.161699,1.71581 0.485098,2.50634 0.341365,0.790531 0.808497,1.482245 1.401395,2.075142 0.592897,0.592898 1.275628,1.06003 2.048192,1.401395 0.790531,0.323399 1.625978,0.485098 2.506341,0.485098 0.664764,0 1.284612,-0.09882 1.859543,-0.296448 0.574931,-0.197633 1.086979,-0.467132 1.536144,-0.808497 0.449165,-0.359332 0.790531,-0.772564 1.024096,-1.239696 0.251533,-0.467131 0.377299,-0.970196 0.377299,-1.509194 v -0.592898 l 0.485098,0.565948 h -3.951034 a 1.6275948,1.6275948 45 0 1 -1.627595,-1.627595 1.5644242,1.5644242 137.36296 0 1 1.627595,-1.498593 h 6.388784 c 0.29091,0 0.569279,0.232431 0.595371,0.522071 0.0045,0.04942 0.0085,0.09998 0.01222,0.151676 0.01797,0.233566 0.02695,0.467132 0.02695,0.700697 0.01797,0.215599 0.02695,0.404249 0.02695,0.565948 0,1.239695 -0.215599,2.371591 -0.646797,3.395688 -0.431199,1.006129 -1.042063,1.877509 -1.832593,2.61414 -0.772564,0.736631 -1.679877,1.311562 -2.72194,1.724794 -1.024096,0.395268 -2.138026,0.592898 -3.341789,0.592898 z m 15.935633,0 c -1.167829,0 -2.227858,-0.323399 -3.180088,-0.970197 -0.952229,-0.646797 -1.71581,-1.527161 -2.290741,-2.64109 -0.574931,-1.113929 -0.862397,-2.380575 -0.862397,-3.799936 0,-1.419361 0.287466,-2.686007 0.862397,-3.799936 0.574931,-1.113929 1.356478,-1.985309 2.344641,-2.61414 0.988163,-0.628831 2.102093,-0.943247 3.341788,-0.943247 0.718664,0 1.374445,0.1078 1.967342,0.323399 0.592898,0.197633 1.113929,0.485098 1.563094,0.862397 0.449165,0.377299 0.817481,0.808497 1.104946,1.293595 0.305433,0.485098 0.512049,1.006129 0.619848,1.563094 L 50.438844,89.29113 v -1.835178 a 1.7222089,1.7222089 135 0 1 1.722209,-1.722209 1.6716813,1.6716813 46.759078 0 1 1.619578,1.722209 v 10.792011 a 1.6883768,1.6883768 135 0 1 -1.688377,1.688377 1.6843733,1.6843733 45.136347 0 1 -1.68036,-1.688377 l 0,-1.70731 0.781547,-0.13475 c -0.125766,0.485099 -0.359332,0.961214 -0.700697,1.428345 -0.323399,0.449165 -0.736631,0.853414 -1.239696,1.212746 -0.485098,0.341365 -1.033079,0.619848 -1.643944,0.835447 -0.592897,0.215599 -1.230712,0.323399 -1.913443,0.323399 z m 0.916297,-2.93754 c 0.772564,0 1.455295,-0.188649 2.048192,-0.565948 0.592898,-0.377299 1.051046,-0.89833 1.374445,-1.563094 0.341365,-0.682731 0.512048,-1.464278 0.512048,-2.344641 0,-0.862397 -0.170683,-1.625977 -0.512048,-2.290742 -0.323399,-0.664764 -0.781547,-1.185795 -1.374445,-1.563094 -0.592897,-0.377299 -1.275628,-0.565948 -2.048192,-0.565948 -0.772564,0 -1.455295,0.188649 -2.048192,0.565948 -0.574931,0.377299 -1.024096,0.89833 -1.347495,1.563094 -0.323399,0.664765 -0.485099,1.428345 -0.485099,2.290742 0,0.880363 0.1617,1.66191 0.485099,2.344641 0.323399,0.664764 0.772564,1.185795 1.347495,1.563094 0.592897,0.377299 1.275628,0.565948 2.048192,0.565948 z m 16.070395,2.93754 c -1.329528,0 -2.524307,-0.323399 -3.584336,-0.970197 -1.060029,-0.646797 -1.895476,-1.527161 -2.506341,-2.64109 -0.610865,-1.113929 -0.916297,-2.371591 -0.916297,-3.772986 0,-1.401395 0.305432,-2.659057 0.916297,-3.772986 0.610865,-1.113929 1.446312,-1.994293 2.506341,-2.64109 1.060029,-0.646798 2.254808,-0.970197 3.584336,-0.970197 1.275629,0 2.434474,0.242549 3.476537,0.727648 0.55507,0.258395 1.04387,0.570315 1.4664,0.935761 0.605064,0.52332 0.543858,1.586203 0.03164,2.203876 -0.499906,0.602827 -1.28562,0.543368 -1.928132,0.06822 -3.69e-4,-2.73e-4 -7.39e-4,-5.46e-4 -0.0011,-8.19e-4 -0.413232,-0.305433 -0.853414,-0.547982 -1.320545,-0.727648 -0.467131,-0.179666 -0.934263,-0.269499 -1.401395,-0.269499 -0.79053,0 -1.500211,0.197633 -2.129042,0.592898 -0.610865,0.377299 -1.095963,0.907313 -1.455294,1.590044 -0.359332,0.664765 -0.538998,1.419362 -0.538998,2.263792 0,0.84443 0.179666,1.599027 0.538998,2.263791 0.377298,0.664765 0.880363,1.194779 1.509194,1.590044 0.628831,0.395265 1.329528,0.592898 2.102092,0.592898 0.467131,0 0.916296,-0.07187 1.347495,-0.215599 0.449165,-0.161699 0.87138,-0.386282 1.266645,-0.673747 0.02966,-0.02157 0.05917,-0.04355 0.08853,-0.06593 0.629983,-0.480275 1.424463,-0.514015 1.92781,0.100364 l 0.0098,0.01198 c 0.503347,0.614379 0.52061,1.63753 -0.100922,2.128834 -0.441006,0.348604 -0.947999,0.656601 -1.520978,0.923991 -1.060029,0.485099 -2.182942,0.727648 -3.368738,0.727648 z m 7.392504,-1.969898 V 81.63718 a 1.6437648,1.6437648 135 0 1 1.643765,-1.643765 h 3.58e-4 a 1.6437648,1.6437648 45 0 1 1.643765,1.643765 v 7.007152 l -0.619848,0.323399 c 0.179666,-0.646797 0.530015,-1.230712 1.051046,-1.751743 0.521031,-0.538998 1.140879,-0.970196 1.859543,-1.293595 0.718664,-0.323399 1.455295,-0.485099 2.209892,-0.485099 1.077996,0 1.976326,0.215599 2.69499,0.646798 0.736631,0.431198 1.284612,1.077996 1.643944,1.940393 0.377299,0.862397 0.565948,1.940393 0.565948,3.233988 v 6.99488 a 1.6829869,1.6829869 135 0 1 -1.682987,1.682987 1.6576162,1.6576162 45.883794 0 1 -1.631851,-1.682987 v -6.752331 c 0,-0.718664 -0.09882,-1.311562 -0.296449,-1.778694 -0.197633,-0.485098 -0.503065,-0.835447 -0.916296,-1.051046 -0.413232,-0.233565 -0.916297,-0.341365 -1.509195,-0.323399 -0.485098,0 -0.934263,0.08085 -1.347495,0.24255 -0.395265,0.143733 -0.745614,0.359332 -1.051046,0.646797 -0.287465,0.269499 -0.521031,0.583915 -0.700697,0.943247 -0.161699,0.359332 -0.242549,0.754597 -0.242549,1.185795 v 6.86967 a 1.7003979,1.7003979 135 0 1 -1.700398,1.700398 1.6579762,1.6579762 46.485417 0 1 -1.61444,-1.700398 z m 20.732701,1.969898 c -1.167829,0 -2.227859,-0.323399 -3.180088,-0.970197 -0.95223,-0.646797 -1.715811,-1.527161 -2.290742,-2.64109 -0.574931,-1.113929 -0.862396,-2.380575 -0.862396,-3.799936 0,-1.419361 0.287465,-2.686007 0.862396,-3.799936 0.574931,-1.113929 1.356479,-1.985309 2.344642,-2.61414 0.988163,-0.628831 2.102092,-0.943247 3.341787,-0.943247 0.718664,0 1.374445,0.1078 1.967343,0.323399 0.592898,0.197633 1.113929,0.485098 1.563094,0.862397 0.449165,0.377299 0.81748,0.808497 1.104946,1.293595 0.305432,0.485098 0.512048,1.006129 0.619848,1.563094 L 95.55074,89.29113 v -1.908232 a 1.6491548,1.6491548 135 0 1 1.649155,-1.649155 h 0.04348 a 1.6491548,1.6491548 45 0 1 1.649155,1.649155 V 98.247963 A 1.6883769,1.6883769 135 0 1 97.204151,99.93634 1.6843738,1.6843738 45.136333 0 1 95.52379,98.247963 l 0,-1.70731 0.781547,-0.13475 c -0.125766,0.485099 -0.359332,0.961214 -0.700697,1.428345 -0.323399,0.449165 -0.73663,0.853414 -1.239695,1.212746 -0.485099,0.341365 -1.03308,0.619848 -1.643944,0.835447 -0.592898,0.215599 -1.230712,0.323399 -1.913443,0.323399 z m 0.916297,-2.93754 c 0.772563,0 1.455294,-0.188649 2.048192,-0.565948 0.592898,-0.377299 1.051046,-0.89833 1.374445,-1.563094 0.341365,-0.682731 0.512048,-1.464278 0.512048,-2.344641 0,-0.862397 -0.170683,-1.625977 -0.512048,-2.290742 -0.323399,-0.664764 -0.781547,-1.185795 -1.374445,-1.563094 -0.592898,-0.377299 -1.275629,-0.565948 -2.048192,-0.565948 -0.772564,0 -1.455295,0.188649 -2.048193,0.565948 -0.574931,0.377299 -1.024096,0.89833 -1.347495,1.563094 -0.323399,0.664765 -0.485098,1.428345 -0.485098,2.290742 0,0.880363 0.161699,1.66191 0.485098,2.344641 0.323399,0.664764 0.772564,1.185795 1.347495,1.563094 0.592898,0.377299 1.275629,0.565948 2.048193,0.565948 z"
         id="path17"
         style="font-weight:500;font-size:26.9499px;font-family:Lexend;-inkscape-font-specification:'Lexend Medium';letter-spacing:-1.0428px;display:none;fill:#7b68ee;fill-opacity:1;stroke-width:1.06102" />
      <path
         style="font-weight:500;font-size:26.9499px;font-family:Lexend;-inkscape-font-specification:'Lexend Medium';letter-spacing:-1.04246px;display:none;fill:#ffd700;fill-opacity:1;stroke-width:1.06102"
         d="m 117.74702,100.20584 c -1.41936,0 -2.73092,-0.242549 -3.93469,-0.727648 -1.20376,-0.503065 -2.2548,-1.194779 -3.15313,-2.075142 -0.88037,-0.880363 -1.5631,-1.90446 -2.0482,-3.072289 -0.48509,-1.185795 -0.72764,-2.470407 -0.72764,-3.853835 0,-1.365462 0.24255,-2.632107 0.72764,-3.799936 0.50307,-1.185796 1.20377,-2.209892 2.1021,-3.072289 0.89833,-0.880363 1.94937,-1.563094 3.15313,-2.048192 1.22173,-0.485099 2.5333,-0.727648 3.93469,-0.727648 0.98816,0 1.94039,0.13475 2.85669,0.404249 0.91629,0.269499 1.74276,0.646797 2.47939,1.131896 0.24373,0.160505 0.47369,0.327894 0.68989,0.502168 0.69457,0.559898 0.6426,1.666274 0.0257,2.313275 -0.60359,0.633035 -1.60536,0.622874 -2.34844,0.128037 -0.10185,-0.06783 -0.20436,-0.132689 -0.30753,-0.19459 -0.52103,-0.323399 -1.06902,-0.574932 -1.64395,-0.754598 -0.57493,-0.179666 -1.16782,-0.269499 -1.77869,-0.269499 -0.89833,0 -1.73377,0.1617 -2.50634,0.485099 -0.7546,0.323399 -1.41936,0.772564 -1.99429,1.347495 -0.55697,0.574931 -0.99715,1.248678 -1.32055,2.021242 -0.3234,0.772564 -0.4851,1.616994 -0.4851,2.533291 0,0.880363 0.1617,1.71581 0.4851,2.50634 0.34137,0.790531 0.8085,1.482245 1.4014,2.075142 0.59289,0.592898 1.27562,1.06003 2.04819,1.401395 0.79053,0.323399 1.62597,0.485098 2.50634,0.485098 0.66477,0 1.28461,-0.09882 1.85954,-0.296448 0.57493,-0.197633 1.08698,-0.467132 1.53615,-0.808497 0.44916,-0.359332 0.79052,-0.772564 1.02409,-1.239696 0.25153,-0.467131 0.3773,-0.970196 0.3773,-1.509194 v -0.592898 l 0.4851,0.565948 h -3.98756 a 1.5910677,1.5910677 45 0 1 -1.59107,-1.591068 1.5633443,1.5633443 136.02528 0 1 1.59107,-1.53512 h 6.36841 c 0.32234,0 0.63058,0.25765 0.65713,0.578762 0.003,0.03122 0.005,0.06288 0.007,0.09499 0.0179,0.233566 0.0269,0.467132 0.0269,0.700697 0.0179,0.215599 0.0269,0.404249 0.0269,0.565948 0,1.239695 -0.2156,2.371591 -0.6468,3.395688 -0.4312,1.006129 -1.04206,1.877509 -1.83259,2.61414 -0.77257,0.736631 -1.67988,1.311562 -2.72194,1.724794 -1.0241,0.395268 -2.13803,0.592898 -3.34179,0.592898 z m 17.22957,0 c -1.49123,0 -2.81177,-0.314416 -3.96164,-0.943247 -1.13189,-0.628831 -2.02124,-1.482245 -2.66804,-2.560241 -0.62883,-1.095963 -0.94324,-2.344641 -0.94324,-3.746036 0,-1.113929 0.17966,-2.129041 0.53899,-3.045338 0.35933,-0.916297 0.85342,-1.706827 1.48225,-2.371592 0.6468,-0.682731 1.41038,-1.203762 2.29074,-1.563094 0.89833,-0.377299 1.87751,-0.565948 2.93754,-0.565948 0.93426,0 1.80564,0.179666 2.61414,0.538998 0.80849,0.359332 1.50919,0.853414 2.10209,1.482245 0.5929,0.610864 1.04207,1.347495 1.3475,2.209892 0.25828,0.6744 0.40769,1.400368 0.44823,2.177905 0.0172,0.329827 0.004,0.865656 -0.004,1.195908 a 0.59347899,0.59347899 137.4566 0 1 -0.61115,0.560872 h -10.90948 l -0.61985,-2.263792 h 9.35162 l -0.4312,0.458149 v -0.592898 c -0.0539,-0.556965 -0.23353,-1.042063 -0.539,-1.455295 -0.30543,-0.431198 -0.7007,-0.76358 -1.1858,-0.997146 -0.46713,-0.251533 -0.98816,-0.377299 -1.56309,-0.377299 -0.88037,0 -1.62598,0.170683 -2.23684,0.512049 -0.5929,0.341365 -1.04207,0.835447 -1.3475,1.482244 -0.30543,0.628831 -0.45815,1.419362 -0.45815,2.371591 0,0.916297 0.18865,1.71581 0.56595,2.398541 0.39527,0.682731 0.94325,1.212745 1.64395,1.590044 0.71866,0.359332 1.55411,0.538998 2.50634,0.538998 0.66476,0 1.27562,-0.107799 1.83259,-0.323398 0.21174,-0.08196 0.42997,-0.188595 0.65469,-0.319894 0.67917,-0.396821 1.52325,-0.32018 1.9825,0.319758 0.44868,0.625214 0.34626,1.578654 -0.32388,1.990177 -0.17203,0.10564 -0.35023,0.205873 -0.53462,0.3007 -0.61086,0.305432 -1.25766,0.547981 -1.94039,0.727647 -0.68273,0.17967 -1.35648,0.2695 -2.02124,0.2695 z m 13.4566,0 c -1.16783,0 -2.22786,-0.323399 -3.18009,-0.970197 -0.95223,-0.646797 -1.71581,-1.527161 -2.29074,-2.64109 -0.57493,-1.113929 -0.8624,-2.380575 -0.8624,-3.799936 0,-1.419361 0.28747,-2.686007 0.8624,-3.799936 0.57493,-1.113929 1.35648,-1.985309 2.34464,-2.61414 0.98817,-0.628831 2.1021,-0.943247 3.34179,-0.943247 0.71867,0 1.37445,0.1078 1.96734,0.323399 0.5929,0.197633 1.11393,0.485098 1.5631,0.862397 0.44916,0.377299 0.81747,0.808497 1.10494,1.293595 0.30543,0.485098 0.51205,1.006129 0.61985,1.563094 l -0.72765,-0.188649 v -1.880123 a 1.6772645,1.6772645 135 0 1 1.67726,-1.677264 1.6709071,1.6709071 45.218412 0 1 1.66453,1.677264 v 10.845374 a 1.6799595,1.6799595 135 0 1 -1.67996,1.679959 h -0.009 a 1.6799595,1.6799595 45 0 1 -1.67996,-1.679959 v -1.715728 l 0.78155,-0.13475 c -0.12577,0.485099 -0.35933,0.961214 -0.7007,1.428345 -0.32339,0.449165 -0.73662,0.853414 -1.23969,1.212746 -0.4851,0.341365 -1.03308,0.619848 -1.64395,0.835447 -0.59289,0.215599 -1.23071,0.323399 -1.91344,0.323399 z m 0.9163,-2.93754 c 0.77256,0 1.45529,-0.188649 2.04819,-0.565948 0.5929,-0.377299 1.05105,-0.89833 1.37445,-1.563094 0.34136,-0.682731 0.51204,-1.464278 0.51204,-2.344641 0,-0.862397 -0.17068,-1.625977 -0.51204,-2.290742 -0.3234,-0.664764 -0.78155,-1.185795 -1.37445,-1.563094 -0.5929,-0.377299 -1.27563,-0.565948 -2.04819,-0.565948 -0.77257,0 -1.4553,0.188649 -2.04819,0.565948 -0.57493,0.377299 -1.0241,0.89833 -1.3475,1.563094 -0.3234,0.664765 -0.4851,1.428345 -0.4851,2.290742 0,0.880363 0.1617,1.66191 0.4851,2.344641 0.3234,0.664764 0.77257,1.185795 1.3475,1.563094 0.59289,0.377299 1.27562,0.565948 2.04819,0.565948 z m 9.98006,0.990777 V 87.377093 a 1.6433499,1.6433499 135 0 1 1.64335,-1.64335 1.6500412,1.6500412 45.106386 0 1 1.63714,1.643233 l 0.0343,2.88435 -0.45815,-1.024096 c 0.19763,-0.718664 0.539,-1.365462 1.0241,-1.940393 0.4851,-0.574931 1.04206,-1.024096 1.67089,-1.347495 0.6468,-0.341365 1.32055,-0.512048 2.02125,-0.512048 0.30543,0 0.5929,0.02695 0.86239,0.08085 0.031,0.0058 0.0615,0.01175 0.0913,0.01778 0.34262,0.06936 0.54207,0.446518 0.45895,0.786543 l -0.58835,2.406897 c -0.0831,0.340025 -0.40293,0.479315 -0.73884,0.383405 -0.0452,-0.0129 -0.0916,-0.02532 -0.1393,-0.03723 -0.28747,-0.07187 -0.57493,-0.1078 -0.8624,-0.1078 -0.44917,0 -0.88036,0.08983 -1.29359,0.269499 -0.39527,0.161699 -0.74562,0.395265 -1.05105,0.700698 -0.30543,0.305432 -0.54798,0.664764 -0.72765,1.077996 -0.1617,0.395265 -0.24255,0.84443 -0.24255,1.347495 v 5.895658 a 1.6772635,1.6772635 135 0 1 -1.67726,1.677263 1.6709022,1.6709022 45.21855 0 1 -1.66452,-1.677263 z m 15.04661,1.946763 c -1.25766,0 -2.38955,-0.206616 -3.39568,-0.619848 -0.51619,-0.225248 -0.98336,-0.499522 -1.4015,-0.822823 -0.62834,-0.485826 -0.53524,-1.431319 0.0677,-1.951324 0.58783,-0.507 1.48014,-0.403231 2.14736,0.02653 0.232,0.149432 0.47287,0.274772 0.72262,0.376021 0.66477,0.269499 1.36546,0.404249 2.10209,0.404249 0.30543,0 0.57493,-0.03593 0.8085,-0.1078 0.25153,-0.07187 0.46713,-0.179665 0.6468,-0.323398 0.17967,-0.143733 0.31442,-0.305433 0.40425,-0.485099 0.1078,-0.197633 0.1617,-0.413232 0.1617,-0.646797 0,-0.431199 -0.1617,-0.772564 -0.4851,-1.024096 -0.17967,-0.125767 -0.46713,-0.260516 -0.8624,-0.404249 -0.3773,-0.143733 -0.87138,-0.287465 -1.48224,-0.431198 -0.9702,-0.251533 -1.7787,-0.538998 -2.42549,-0.862397 -0.6468,-0.341365 -1.14987,-0.718664 -1.5092,-1.131896 -0.30543,-0.341365 -0.539,-0.727647 -0.7007,-1.158846 -0.14373,-0.431198 -0.2156,-0.898329 -0.2156,-1.401394 0,-0.628831 0.13475,-1.194779 0.40425,-1.697844 0.28747,-0.521031 0.67375,-0.970196 1.15885,-1.347495 0.4851,-0.377299 1.05105,-0.664764 1.69784,-0.862397 0.6468,-0.197633 1.32055,-0.296449 2.02124,-0.296449 0.71867,0 1.41038,0.08983 2.07515,0.269499 0.68273,0.179666 1.31156,0.440182 1.88649,0.781547 0.16078,0.0877 0.31495,0.180678 0.46251,0.278944 0.63662,0.423931 0.62904,1.367482 0.11386,1.935698 -0.49694,0.548094 -1.34828,0.550748 -2.0002,0.149264 -0.0105,-0.0064 -0.0209,-0.01287 -0.0315,-0.01926 -0.39527,-0.251533 -0.79952,-0.449165 -1.21275,-0.592898 -0.41323,-0.161699 -0.79952,-0.242549 -1.15885,-0.242549 -0.34136,0 -0.64679,0.03593 -0.91629,0.107799 -0.2695,0.0539 -0.49408,0.143733 -0.67375,0.269499 -0.17967,0.125767 -0.3234,0.287466 -0.4312,0.485099 -0.0898,0.179666 -0.13475,0.395265 -0.13475,0.646797 0.0179,0.215599 0.0718,0.422215 0.1617,0.619848 0.1078,0.179666 0.25153,0.332382 0.4312,0.458148 0.19763,0.125766 0.49408,0.269499 0.88935,0.431199 0.39526,0.161699 0.90731,0.314415 1.53614,0.458148 0.88037,0.233566 1.617,0.494082 2.20989,0.781547 0.5929,0.287465 1.06003,0.619847 1.4014,0.997146 0.34137,0.323399 0.58391,0.700697 0.72764,1.131896 0.14373,0.431199 0.2156,0.907314 0.2156,1.428345 0,0.84443 -0.24255,1.599027 -0.72764,2.263791 -0.46713,0.664765 -1.11393,1.185796 -1.9404,1.563094 -0.80849,0.377299 -1.72479,0.565949 -2.74889,0.565949 z"
         id="path18" />
      <path
         d="m 77.780671,79.993566 a 1.6437648,1.6437648 0 0 0 -1.643827,1.643828 v 16.59847 a 1.6579762,1.6579762 0 0 0 1.614372,1.700671 1.7003979,1.7003979 0 0 0 1.700671,-1.700671 v -6.869349 c 0,-0.431197 0.08066,-0.826642 0.242363,-1.185974 0.179665,-0.359331 0.413267,-0.673596 0.700732,-0.943095 0.305432,-0.287464 0.655834,-0.503256 1.051099,-0.646989 0.413231,-0.161699 0.862107,-0.242362 1.347204,-0.242362 0.592898,-0.01797 1.096237,0.08941 1.509469,0.322978 0.41323,0.215599 0.71859,0.566001 0.916223,1.051098 0.197629,0.467132 0.296623,1.06004 0.296623,1.778703 v 6.752559 a 1.6576162,1.6576162 0 0 0 1.631941,1.683102 1.6829869,1.6829869 0 0 0 1.682585,-1.683102 v -6.994921 c 0,-1.293594 -0.188558,-2.371515 -0.565857,-3.233911 -0.359332,-0.862397 -0.907197,-1.509253 -1.643827,-1.94045 -0.718664,-0.431199 -1.616931,-0.646989 -2.694926,-0.646989 -0.754596,0 -1.491538,0.161843 -2.210201,0.485241 -0.718664,0.323399 -1.338288,0.754464 -1.859318,1.293461 -0.162165,0.162166 -0.301884,0.332598 -0.430982,0.506946 v -6.085416 a 1.6437648,1.6437648 0 0 0 -1.643827,-1.643828 z m -41.904935,0.835091 c -1.401394,0 -2.712916,0.242506 -3.934644,0.727605 -1.203761,0.485097 -2.25445,1.168091 -3.152779,2.048453 -0.898329,0.862396 -1.599133,1.886369 -2.102197,3.072164 -0.485098,1.167828 -0.727604,2.434824 -0.727604,3.800285 0,1.383427 0.242506,2.667718 0.727604,3.853512 0.485098,1.167827 1.167575,2.191801 2.047937,3.072163 0.898329,0.880363 1.949535,1.572261 3.153296,2.075326 1.203761,0.485098 2.515284,0.727605 3.934643,0.727605 1.203762,0 2.31782,-0.19746 3.341915,-0.59273 1.042062,-0.413231 1.949235,-0.988329 2.721798,-1.724959 0.790529,-0.73663 1.401248,-1.608183 1.832446,-2.614311 0.431198,-1.024096 0.646989,-2.155964 0.646989,-3.395658 0,-0.161699 -0.0089,-0.350258 -0.02687,-0.565857 0,-0.233565 -0.0089,-0.467166 -0.02687,-0.700732 -0.0037,-0.0517 -0.008,-0.101992 -0.0124,-0.151412 -0.02609,-0.28964 -0.304403,-0.521932 -0.595312,-0.521932 H 37.31493 a 1.5644242,1.5644242 0 0 0 -1.627807,1.4981 1.6275948,1.6275948 0 0 0 1.627807,1.627807 h 3.465939 v 0.02687 c 0,0.538997 -0.125705,1.042338 -0.377238,1.509469 -0.233565,0.467131 -0.575063,0.880385 -1.024227,1.239717 -0.449165,0.341365 -0.960893,0.610587 -1.535824,0.80822 -0.57493,0.197627 -1.195071,0.296622 -1.859834,0.296622 -0.880363,0 -1.715777,-0.161843 -2.506307,-0.485241 -0.772564,-0.341365 -1.455041,-0.808568 -2.047937,-1.401465 -0.592898,-0.592897 -1.060101,-1.284279 -1.401465,-2.074809 -0.323399,-0.790529 -0.485242,-1.625945 -0.485242,-2.506307 0,-0.916296 0.161843,-1.761132 0.485242,-2.533695 0.323398,-0.772564 0.763368,-1.446135 1.320333,-2.021066 0.57493,-0.57493 1.239597,-1.024322 1.994193,-1.347721 0.772562,-0.323399 1.607978,-0.484725 2.506307,-0.484725 0.610864,0 1.203772,0.08957 1.778703,0.269234 0.57493,0.179666 1.123313,0.431077 1.644344,0.754476 0.10386,0.06232 0.207016,0.128051 0.309542,0.196371 0.741805,0.494314 1.743132,0.502759 2.34766,-0.131259 0.61597,-0.646017 0.668037,-1.750679 -0.02532,-2.309936 -0.216751,-0.174829 -0.447498,-0.342866 -0.691948,-0.503845 -0.73663,-0.485099 -1.562622,-0.862215 -2.478918,-1.131714 -0.916295,-0.269499 -1.869028,-0.404627 -2.85719,-0.404627 z m 16.097725,4.608505 c -1.239694,0 -2.353753,0.314781 -3.341915,0.943611 -0.988162,0.628831 -1.769629,1.499866 -2.344559,2.613794 -0.574931,1.113928 -0.86248,2.380925 -0.86248,3.800285 0,1.41936 0.287549,2.68584 0.86248,3.799768 0.57493,1.113928 1.338588,1.994386 2.290816,2.641182 0.952229,0.646798 2.01234,0.969968 3.180167,0.969968 0.682731,0 1.320166,-0.1079 1.913062,-0.323495 0.610864,-0.215599 1.15873,-0.493727 1.643827,-0.835092 0.466319,-0.333084 0.847161,-0.709037 1.159103,-1.119311 v 0.319877 a 1.6843733,1.6843733 0 0 0 1.680517,1.688786 1.6883768,1.6883768 0 0 0 1.688269,-1.688786 V 87.45616 a 1.6716813,1.6716813 0 0 0 -1.619539,-1.722376 1.7222089,1.7222089 0 0 0 -1.722376,1.722376 v 0.309542 C 56.229122,87.344389 55.903854,86.959017 55.503995,86.623136 55.05483,86.245837 54.53368,85.958289 53.940783,85.760656 53.347887,85.545057 52.692124,85.437162 51.973461,85.437162 Z m 16.771069,0 c -1.329526,0 -2.524249,0.323686 -3.584277,0.970483 -1.060028,0.646796 -1.895443,1.527255 -2.506307,2.641182 -0.610864,1.113928 -0.91674,2.371503 -0.91674,3.772897 0,1.401393 0.305876,2.658968 0.91674,3.772896 0.610864,1.113928 1.446279,1.994386 2.506307,2.641182 1.060028,0.646798 2.254751,0.969968 3.584277,0.969968 1.185795,0 2.308759,-0.242507 3.368787,-0.727605 0.572978,-0.26739 1.079831,-0.575371 1.520837,-0.923975 0.621532,-0.491303 0.604116,-1.51469 0.100769,-2.129069 l -0.0098,-0.01189 c -0.503347,-0.614379 -1.297549,-0.580527 -1.927531,-0.100253 -0.02936,0.02238 -0.05922,0.04457 -0.08888,0.06615 -0.395264,0.287465 -0.817424,0.511645 -1.266589,0.673344 -0.431198,0.143729 -0.880074,0.216008 -1.347204,0.216008 -0.772564,0 -1.473367,-0.197981 -2.102198,-0.593246 -0.62883,-0.395264 -1.132171,-0.925319 -1.509468,-1.590084 -0.359332,-0.664763 -0.538985,-1.418998 -0.538985,-2.263427 0,-0.844429 0.179653,-1.59918 0.538985,-2.263945 0.35933,-0.68273 0.84486,-1.212785 1.455725,-1.590084 0.62883,-0.395264 1.33854,-0.592728 2.129069,-0.592728 0.467131,0 0.933817,0.08957 1.400948,0.269234 0.46713,0.179666 0.907618,0.422171 1.320849,0.727604 l 0.001,0.001 c 0.642511,0.475146 1.428143,0.534613 1.928048,-0.06821 0.512215,-0.617672 0.573541,-1.680681 -0.03152,-2.204 -0.42252,-0.365414 -0.911499,-0.677434 -1.466568,-0.935828 -1.042062,-0.485099 -2.200646,-0.727604 -3.476274,-0.727604 z m 28.340906,0 c -1.239694,0 -2.353753,0.314781 -3.341915,0.943611 -0.988162,0.628831 -1.769629,1.499866 -2.34456,2.613794 -0.57493,1.113928 -0.862479,2.380925 -0.862479,3.800285 0,1.41936 0.287549,2.68584 0.862479,3.799768 0.574931,1.113928 1.338588,1.994386 2.290817,2.641182 0.952228,0.646798 2.011823,0.969968 3.17965,0.969968 0.682731,0 1.320681,-0.1079 1.913579,-0.323495 0.610861,-0.215599 1.158731,-0.493727 1.643823,-0.835092 0.46632,-0.333084 0.84716,-0.709037 1.1591,-1.119311 v 0.319877 a 1.6843738,1.6843738 0 0 0 1.68052,1.688786 1.6883769,1.6883769 0 0 0 1.68827,-1.688786 v -10.86497 a 1.6491548,1.6491548 0 0 0 -1.64951,-1.648995 h -0.0434 a 1.6491548,1.6491548 0 0 0 -1.649,1.648995 v 0.382923 c -0.27172,-0.421313 -0.5975,-0.806685 -0.99736,-1.142566 -0.44916,-0.377299 -0.969792,-0.664847 -1.562692,-0.86248 -0.5929,-0.215599 -1.248661,-0.323494 -1.967324,-0.323494 z m -44.411242,2.937805 c 0.772563,0 1.45504,0.188558 2.047937,0.565857 0.592897,0.377298 1.051194,0.898448 1.374593,1.563212 0.341364,0.664764 0.512113,1.42842 0.512113,2.290816 0,0.880362 -0.170749,1.661829 -0.512113,2.34456 -0.323399,0.664763 -0.781696,1.185396 -1.374593,1.562695 -0.592897,0.377299 -1.275374,0.566374 -2.047937,0.566374 -0.772564,0 -1.455558,-0.189075 -2.048454,-0.566374 -0.574931,-0.377299 -1.023806,-0.897932 -1.347205,-1.562695 -0.323398,-0.682731 -0.485241,-1.464198 -0.485241,-2.34456 0,-0.862396 0.161843,-1.626052 0.485241,-2.290816 0.323399,-0.664764 0.772274,-1.185914 1.347205,-1.563212 0.592896,-0.377299 1.27589,-0.565857 2.048454,-0.565857 z m 45.111458,0 c 0.772562,0 1.455556,0.188558 2.048456,0.565857 0.592892,0.377298 1.051192,0.898448 1.374592,1.563212 0.34136,0.664764 0.51211,1.42842 0.51211,2.290816 0,0.880362 -0.17075,1.661829 -0.51211,2.34456 -0.3234,0.664763 -0.7817,1.185396 -1.374592,1.562695 -0.5929,0.377299 -1.275894,0.566374 -2.048456,0.566374 -0.772564,0 -1.45504,-0.189075 -2.047937,-0.566374 -0.574931,-0.377299 -1.024323,-0.897932 -1.347722,-1.562695 -0.323398,-0.682731 -0.484725,-1.464198 -0.484725,-2.34456 0,-0.862396 0.161327,-1.626052 0.484725,-2.290816 0.323399,-0.664764 0.772791,-1.185914 1.347722,-1.563212 0.592897,-0.377299 1.275373,-0.565857 2.047937,-0.565857 z"
         style="font-weight:500;font-size:26.9499px;font-family:Lexend;-inkscape-font-specification:'Lexend Medium';letter-spacing:-1.0428px;display:inline;fill:#7b68ee;stroke:#343a40;stroke-width:0.8;stroke-dasharray:none;stroke-opacity:1"
         id="path96" />
      <path
         d="m 117.80108,80.828657 c -1.40139,0 -2.71291,0.242506 -3.93465,0.727605 -1.20375,0.485097 -2.25497,1.168091 -3.15329,2.048453 -0.89833,0.862396 -1.59913,1.886369 -2.1022,3.072164 -0.48509,1.167828 -0.7276,2.434824 -0.7276,3.800285 0,1.383427 0.24251,2.667717 0.7276,3.853512 0.4851,1.167828 1.16809,2.191801 2.04845,3.072163 0.89833,0.880363 1.94902,1.572262 3.15278,2.075326 1.20377,0.485098 2.51529,0.727605 3.93465,0.727605 1.20376,0 2.31781,-0.19746 3.34191,-0.59273 1.04206,-0.413231 1.94923,-0.988329 2.7218,-1.724959 0.79053,-0.73663 1.40125,-1.608182 1.83245,-2.614311 0.4312,-1.024095 0.64698,-2.155964 0.64698,-3.395658 0,-0.161699 -0.009,-0.350258 -0.0269,-0.565857 0,-0.233565 -0.009,-0.467166 -0.0269,-0.700732 -0.002,-0.0321 -0.005,-0.06386 -0.007,-0.09509 -0.0266,-0.321112 -0.33499,-0.578259 -0.65733,-0.578259 h -6.36808 a 1.5633443,1.5633443 0 0 0 -1.59112,1.53479 1.5910677,1.5910677 0 0 0 1.59112,1.591117 h 3.50211 v 0.02687 c 0,0.538997 -0.12571,1.042338 -0.37724,1.509469 -0.23357,0.467131 -0.57507,0.880385 -1.02423,1.239717 -0.44916,0.341365 -0.96089,0.610587 -1.53582,0.80822 -0.57493,0.197631 -1.19507,0.296622 -1.85984,0.296622 -0.88036,0 -1.71578,-0.161843 -2.5063,-0.485241 -0.77257,-0.341365 -1.45505,-0.808568 -2.04794,-1.401465 -0.5929,-0.592897 -1.0601,-1.284279 -1.40146,-2.074809 -0.3234,-0.790529 -0.48525,-1.625945 -0.48525,-2.506307 0,-0.916296 0.16185,-1.761132 0.48525,-2.533695 0.3234,-0.772564 0.76336,-1.446136 1.32033,-2.021066 0.57492,-0.57493 1.23959,-1.024323 1.99419,-1.347721 0.77257,-0.323399 1.6085,-0.484725 2.50683,-0.484725 0.61086,0 1.20377,0.08957 1.7787,0.269234 0.57493,0.179666 1.12279,0.431077 1.64383,0.754476 0.10316,0.0619 0.20562,0.126995 0.30747,0.19482 0.74308,0.494837 1.74459,0.504877 2.34818,-0.128157 0.6169,-0.647001 0.66925,-1.75314 -0.0253,-2.313037 -0.2162,-0.174274 -0.44615,-0.34179 -0.68988,-0.502295 -0.73664,-0.485098 -1.56315,-0.862216 -2.47944,-1.131714 -0.9163,-0.269499 -1.86851,-0.404627 -2.85667,-0.404627 z m 16.8522,4.581633 c -1.06003,0 -2.03947,0.188559 -2.93781,0.565857 -0.88036,0.359331 -1.64401,0.880482 -2.29081,1.563212 -0.62884,0.664764 -1.12275,1.455136 -1.48208,2.371431 -0.35933,0.916296 -0.53899,1.931365 -0.53899,3.045292 0,1.401394 0.31427,2.650063 0.9431,3.746025 0.6468,1.077995 1.53616,1.931737 2.66805,2.560567 1.14987,0.628831 2.47081,0.943096 3.96203,0.943096 0.66476,0 1.33834,-0.0896 2.02107,-0.269235 0.68273,-0.179666 1.32959,-0.422173 1.94045,-0.727604 0.18438,-0.09483 0.36282,-0.195117 0.53485,-0.300757 0.67014,-0.411522 0.77218,-1.365363 0.32349,-1.990576 -0.45925,-0.639938 -1.30314,-0.716182 -1.9823,-0.319361 -0.22473,0.131299 -0.44301,0.237914 -0.65474,0.319877 -0.55697,0.215599 -1.16769,0.322978 -1.83245,0.322978 -0.95223,0 -1.78765,-0.179653 -2.50631,-0.538985 -0.7007,-0.377298 -1.24908,-0.906837 -1.64434,-1.589567 -0.25308,-0.457946 -0.41329,-0.97331 -0.49661,-1.53634 h 9.8702 a 0.59347899,0.59347899 0 0 0 0.61133,-0.56069 c 0.008,-0.330251 0.0208,-0.866483 0.004,-1.196309 -0.0405,-0.777536 -0.18976,-1.503246 -0.44804,-2.177645 -0.30543,-0.862396 -0.75482,-1.599337 -1.34772,-2.210201 -0.5929,-0.628831 -1.2937,-1.122748 -2.1022,-1.48208 -0.8085,-0.359332 -1.67953,-0.538985 -2.61379,-0.538985 z m 13.99553,0.02687 c -1.2397,0 -2.35375,0.314781 -3.34192,0.943611 -0.98816,0.62883 -1.76963,1.499866 -2.34456,2.613794 -0.57493,1.113928 -0.86248,2.380925 -0.86248,3.800285 0,1.41936 0.28755,2.68584 0.86248,3.799768 0.57493,1.113928 1.33859,1.994386 2.29082,2.641182 0.95223,0.646798 2.01234,0.96997 3.18017,0.96997 0.68273,0 1.32016,-0.1079 1.91306,-0.323497 0.61086,-0.215599 1.15924,-0.493727 1.64434,-0.835092 0.46611,-0.332929 0.84672,-0.708747 1.15859,-1.118794 v 0.328145 a 1.6799595,1.6799595 0 0 0 1.68,1.680001 h 0.009 a 1.6799595,1.6799595 0 0 0 1.68,-1.680001 V 87.411201 a 1.6709071,1.6709071 0 0 0 -1.66449,-1.677417 1.6772645,1.6772645 0 0 0 -1.67742,1.677417 v 0.354501 c -0.27171,-0.421313 -0.59699,-0.806685 -0.99684,-1.142566 -0.44917,-0.377299 -0.97031,-0.664847 -1.56321,-0.86248 -0.59289,-0.215599 -1.24866,-0.323494 -1.96732,-0.323494 z m 18.25366,0 c -0.7007,0 -1.37426,0.170748 -2.02106,0.512113 -0.62883,0.323399 -1.18612,0.772791 -1.67122,1.347721 -0.23008,0.27269 -0.42525,0.562625 -0.59066,0.867648 l -0.009,-0.787549 a 1.6500412,1.6500412 0 0 0 -1.63711,-1.643311 1.6433499,1.6433499 0 0 0 -1.64331,1.643311 v 10.882023 a 1.6709022,1.6709022 0 0 0 1.6645,1.677417 1.6772635,1.6772635 0 0 0 1.6769,-1.677417 v -5.895764 c 0,-0.503065 0.0812,-0.951941 0.24288,-1.347205 0.17966,-0.413231 0.42217,-0.772538 0.7276,-1.07797 0.30543,-0.305433 0.65583,-0.539033 1.0511,-0.700733 0.41322,-0.179665 0.84429,-0.269751 1.29346,-0.269751 0.28747,0 0.57501,0.03614 0.86248,0.108004 0.0477,0.01192 0.0938,0.0243 0.13901,0.03721 0.33591,0.09591 0.65585,-0.04341 0.73897,-0.383439 l 0.5886,-2.407088 c 0.0831,-0.340025 -0.11679,-0.717153 -0.45941,-0.786515 -0.0298,-0.006 -0.0599,-0.01175 -0.0909,-0.01757 -0.26949,-0.0539 -0.55704,-0.08113 -0.86248,-0.08113 z m 7.33909,0 c -0.70069,0 -1.37478,0.09899 -2.02158,0.296622 -0.6468,0.197633 -1.21247,0.485182 -1.69757,0.86248 -0.4851,0.377298 -0.87164,0.826174 -1.15911,1.347205 -0.2695,0.503064 -0.40411,1.069256 -0.40411,1.698087 0,0.503064 0.0718,0.970267 0.2155,1.401465 0.1617,0.431198 0.39529,0.817221 0.70073,1.158586 0.35933,0.413231 0.86267,0.790865 1.50947,1.13223 0.64679,0.323399 1.45497,0.610431 2.42517,0.861963 0.61086,0.143733 1.1053,0.287766 1.4826,0.431498 0.39526,0.143733 0.68229,0.278343 0.86196,0.40411 0.3234,0.251532 0.48524,0.593029 0.48524,1.024227 0,0.233565 -0.0539,0.44884 -0.16174,0.646472 -0.0898,0.179666 -0.22445,0.341509 -0.40411,0.485242 -0.17967,0.143732 -0.39546,0.251628 -0.64699,0.323494 -0.23357,0.07187 -0.50279,0.108004 -0.80822,0.108004 -0.73663,0 -1.43743,-0.135127 -2.1022,-0.404627 -0.24975,-0.101249 -0.49044,-0.226256 -0.72244,-0.375687 -0.66722,-0.429764 -1.55984,-0.533872 -2.14767,-0.02687 -0.6029,0.520005 -0.69603,1.465477 -0.0677,1.951302 0.41813,0.323301 0.88527,0.597958 1.40146,0.823206 1.00613,0.413231 2.138,0.619601 3.39566,0.619601 1.0241,0 1.94069,-0.18856 2.74918,-0.565858 0.82647,-0.377297 1.47332,-0.898448 1.94045,-1.563212 0.4851,-0.664763 0.72761,-1.419515 0.72761,-2.263944 0,-0.521031 -0.0718,-0.997139 -0.21549,-1.428337 -0.14373,-0.431198 -0.38624,-0.808315 -0.72761,-1.131714 -0.34136,-0.377298 -0.80856,-0.709373 -1.40146,-0.996838 -0.59289,-0.287465 -1.32984,-0.548299 -2.2102,-0.781865 -0.62883,-0.143732 -1.14057,-0.296154 -1.53583,-0.457853 -0.39526,-0.1617 -0.69171,-0.305732 -0.88935,-0.431498 -0.17966,-0.125766 -0.3237,-0.278187 -0.4315,-0.457853 -0.0899,-0.197633 -0.14381,-0.404518 -0.16174,-0.620117 0,-0.251532 0.045,-0.467323 0.13487,-0.646989 0.1078,-0.197633 0.25183,-0.358959 0.4315,-0.484725 0.17967,-0.125766 0.40385,-0.215851 0.67335,-0.269751 0.26949,-0.07187 0.57486,-0.107487 0.91622,-0.107487 0.35933,0 0.74587,0.08066 1.1591,0.242362 0.41323,0.143733 0.81758,0.341197 1.21285,0.592729 0.0105,0.0064 0.0211,0.01319 0.0315,0.01964 0.65192,0.401484 1.50294,0.398749 1.99988,-0.149345 0.51518,-0.568215 0.52292,-1.511868 -0.11369,-1.935799 -0.14757,-0.09827 -0.30173,-0.191356 -0.46251,-0.279053 -0.57493,-0.341365 -1.20398,-0.601682 -1.8867,-0.781347 -0.66477,-0.179666 -1.35614,-0.269751 -2.07481,-0.269751 z m -39.58828,2.910933 c 0.57493,0 1.09608,0.125706 1.56321,0.377238 0.4851,0.233566 0.88002,0.565641 1.18546,0.996838 0.30546,0.413232 0.48512,0.898245 0.53898,1.455209 v 0.134875 h -7.19129 c 0.0758,-0.355808 0.17948,-0.681985 0.31936,-0.969966 0.30543,-0.646797 0.75431,-1.141232 1.34721,-1.482597 0.61086,-0.341366 1.3567,-0.511597 2.23707,-0.511597 z m 14.69626,0.02687 c 0.77256,0 1.45504,0.188558 2.04794,0.565857 0.5929,0.377298 1.05119,0.898448 1.37459,1.563212 0.34136,0.664764 0.51211,1.42842 0.51211,2.290816 0,0.880362 -0.17075,1.66183 -0.51211,2.34456 -0.3234,0.664763 -0.78169,1.185397 -1.37459,1.562695 -0.5929,0.377298 -1.27538,0.566374 -2.04794,0.566374 -0.77257,0 -1.45556,-0.189076 -2.04845,-0.566374 -0.57494,-0.377298 -1.02381,-0.897932 -1.34721,-1.562695 -0.3234,-0.68273 -0.48524,-1.464198 -0.48524,-2.34456 0,-0.862396 0.16184,-1.626052 0.48524,-2.290816 0.3234,-0.664764 0.77227,-1.185914 1.34721,-1.563212 0.59289,-0.377299 1.27588,-0.565857 2.04845,-0.565857 z"
         style="font-weight:500;font-size:26.9499px;font-family:Lexend;-inkscape-font-specification:'Lexend Medium';letter-spacing:-1.04246px;display:inline;fill:#ffd700;stroke:#343a40;stroke-width:0.8;stroke-dasharray:none;stroke-opacity:1"
         id="path97" />
      <path
         id="rect96"
         style="display:inline;fill:#ffffff;fill-opacity:1;stroke:#343a40;stroke-width:0.800976;stroke-dasharray:none;stroke-opacity:1"
         d="m 109.44624,98.990341 1.15736,-17.592157 1.53537,17.592157 67.88645,1.343079 -67.88645,1.34311 -1.34637,16.87772 -1.34636,-16.87772 -83.03974,-0.94859 z" />
    </g>
  </g>
</svg>
