<?xml version="1.0" encoding="UTF-8" standalone="no"?>
<!-- Created with Inkscape (http://www.inkscape.org/) -->

<svg
   width="31.998968"
   height="32"
   viewBox="0 0 16.164957 16.165478"
   version="1.1"
   id="svg1"
   xmlns:xlink="http://www.w3.org/1999/xlink"
   xmlns="http://www.w3.org/2000/svg"
   xmlns:svg="http://www.w3.org/2000/svg">
  <defs
     id="defs1">
    <color-profile
       name="Agfa-:-Swop-Standard"
       xlink:href="../../../../../Windows/system32/spool/drivers/color/RSWOP.icm"
       id="color-profile2" />
  </defs>
  <g
     id="g104"
     style="display:inline;fill:#ffffff;fill-opacity:1"
     transform="translate(-19.80769,-20.214312)">
    <path
       d="m 23.18353,30.146625 c -0.577458,0 -1.09283,0.131757 -1.546026,0.394902 -0.453199,0.255836 -0.811385,0.610232 -1.07453,1.063431 -0.263145,0.453196 -0.394624,0.968563 -0.394624,1.54602 0,0.577458 0.131479,1.09283 0.394624,1.546021 0.263145,0.453199 0.621331,0.811391 1.07453,1.074535 0.453196,0.255831 0.968568,0.383799 1.546026,0.383799 0.570143,0 1.081724,-0.127968 1.534923,-0.383799 0.453196,-0.263144 0.807592,-0.621336 1.063428,-1.074535 0.263145,-0.453191 0.394903,-0.968563 0.394903,-1.546021 0,-0.577457 -0.131758,-1.092824 -0.394903,-1.54602 -0.255836,-0.453199 -0.610232,-0.807595 -1.063428,-1.063431 -0.453199,-0.263145 -0.96478,-0.394902 -1.534923,-0.394902 z m 0,1.195261 c 0.314308,0 0.591877,0.08035 0.833091,0.241162 0.248526,0.153501 0.442231,0.365608 0.581114,0.636062 0.146182,0.270459 0.215715,0.581024 0.208413,0.931886 0.0073,0.343545 -0.06222,0.650609 -0.208413,0.921063 -0.138883,0.27046 -0.332588,0.486075 -0.581114,0.646883 -0.241214,0.160812 -0.518783,0.24116 -0.833091,0.24116 -0.314313,0 -0.599464,-0.08035 -0.855297,-0.24116 -0.248526,-0.160808 -0.442236,-0.376423 -0.581114,-0.646883 -0.138878,-0.270454 -0.208413,-0.577518 -0.208413,-0.921063 0,-0.343556 0.06953,-0.650611 0.208413,-0.921065 0.138878,-0.277764 0.332588,-0.493382 0.581114,-0.646883 0.255833,-0.160814 0.540984,-0.241162 0.855297,-0.241162 z"
       style="font-weight:500;font-size:20.4171px;font-family:Lexend;-inkscape-font-specification:'Lexend Medium';letter-spacing:-0.790019px;display:inline;fill:#dee2e6;stroke:#343a40;stroke-width:0.429616;stroke-dasharray:none;stroke-opacity:1"
       id="path99" />
    <path
       style="font-weight:500;font-size:26.9499px;font-family:Lexend;-inkscape-font-specification:'Lexend Medium';letter-spacing:-1.0428px;display:inline;fill:#7b68ee;stroke:#343a40;stroke-width:0.429302;stroke-dasharray:none;stroke-opacity:1"
       d="m 25.394412,20.433557 c -0.752577,0 -1.45689,0.130231 -2.112983,0.390739 -0.646444,0.260506 -1.210685,0.627288 -1.693106,1.100059 -0.48242,0.463125 -0.858766,1.013018 -1.128922,1.649815 -0.260507,0.627146 -0.390738,1.307548 -0.390738,2.040828 0,0.742929 0.130231,1.432619 0.390738,2.069415 0.260508,0.627145 0.627012,1.177041 1.099784,1.649812 0.48242,0.472774 1.046939,0.844336 1.693383,1.114491 0.646444,0.260508 1.350758,0.390739 2.112982,0.390739 0.646445,0 1.244717,-0.106039 1.794676,-0.318308 0.559608,-0.221913 1.046779,-0.530751 1.461661,-0.926336 0.424531,-0.395586 0.752499,-0.863628 0.98406,-1.403938 0.231563,-0.54996 0.347448,-1.157797 0.347448,-1.823538 0,-0.08684 -0.0048,-0.188095 -0.01443,-0.303876 0,-0.125428 -0.0048,-0.250876 -0.01443,-0.376307 -0.002,-0.02777 -0.0043,-0.05477 -0.0067,-0.08131 -0.01401,-0.155543 -0.163471,-0.280288 -0.319695,-0.280288 h -3.430896 a 0.84012724,0.84012724 0 0 0 -0.874165,0.804509 0.87405114,0.87405114 0 0 0 0.874165,0.874164 h 1.861279 v 0.01443 c 0,0.289451 -0.06751,0.559756 -0.202584,0.810615 -0.125429,0.250859 -0.308821,0.472784 -0.550031,0.665754 -0.24121,0.18332 -0.516018,0.327897 -0.824768,0.434031 -0.308749,0.106129 -0.641777,0.159291 -0.998768,0.159291 -0.472773,0 -0.921407,-0.08691 -1.345938,-0.260586 -0.414882,-0.183317 -0.781386,-0.434215 -1.099783,-0.752613 -0.318398,-0.318398 -0.569295,-0.689683 -0.752615,-1.114215 -0.173672,-0.424529 -0.260585,-0.873164 -0.260585,-1.345936 0,-0.492071 0.08691,-0.945763 0.260585,-1.360645 0.173671,-0.414882 0.409944,-0.776605 0.709046,-1.085353 0.308748,-0.308751 0.665688,-0.550082 1.070921,-0.723753 0.414882,-0.173673 0.863517,-0.260309 1.345937,-0.260309 0.328047,0 0.64645,0.0481 0.9552,0.144585 0.308749,0.09649 0.603241,0.231498 0.883046,0.405168 0.05577,0.03347 0.111171,0.06877 0.16623,0.105457 0.398364,0.265455 0.936098,0.26999 1.260742,-0.07049 0.330788,-0.346924 0.358749,-0.94015 -0.0136,-1.240482 -0.1164,-0.09389 -0.240316,-0.184125 -0.37159,-0.270574 -0.395587,-0.260508 -0.839161,-0.463028 -1.33123,-0.607755 -0.492069,-0.144724 -1.003706,-0.217292 -1.534369,-0.217292 z"
       id="path107" />
    <path
       style="font-weight:500;font-size:26.9499px;font-family:Lexend;-inkscape-font-specification:'Lexend Medium';letter-spacing:-1.04246px;display:inline;fill:#ffd700;fill-opacity:1;stroke:#343a40;stroke-width:0.429616;stroke-dasharray:none;stroke-opacity:1"
       d="m 31.074557,25.749433 c -0.752573,0 -1.456888,0.13023 -2.112986,0.390738 -0.646438,0.260509 -1.210966,0.627288 -1.693382,1.100062 -0.482421,0.463122 -0.858765,1.013017 -1.128923,1.649812 -0.260503,0.627149 -0.390736,1.307551 -0.390736,2.04083 0,0.74293 0.130233,1.432618 0.390736,2.069413 0.260509,0.627148 0.627288,1.177043 1.100057,1.649814 0.482421,0.472772 1.046665,0.844337 1.69311,1.114492 0.646446,0.260508 1.350761,0.390739 2.112984,0.390739 0.646444,0 1.244711,-0.10604 1.794674,-0.318308 0.559606,-0.221913 1.046776,-0.530754 1.461659,-0.926337 0.424532,-0.395586 0.752502,-0.863627 0.984064,-1.403937 0.231562,-0.549961 0.347441,-1.157798 0.347441,-1.823539 0,-0.08684 -0.0048,-0.188094 -0.01445,-0.303875 0,-0.125431 -0.0048,-0.250879 -0.01445,-0.376307 -10e-4,-0.01724 -0.0027,-0.03429 -0.0038,-0.05107 -0.01426,-0.172444 -0.179876,-0.310537 -0.352977,-0.310537 h -3.419787 a 0.83954733,0.83954733 0 0 0 -0.854465,0.824214 0.85443535,0.85443535 0 0 0 0.854465,0.854461 h 1.880704 v 0.01443 c 0,0.289452 -0.06751,0.559757 -0.202587,0.810615 -0.12543,0.250859 -0.308822,0.472784 -0.550032,0.665754 -0.241207,0.183319 -0.516017,0.327897 -0.824765,0.434029 -0.308751,0.106131 -0.641777,0.159293 -0.998773,0.159293 -0.472771,0 -0.921406,-0.08692 -1.345934,-0.260585 -0.414884,-0.183321 -0.78139,-0.434216 -1.099785,-0.752614 -0.318397,-0.318397 -0.569293,-0.689685 -0.752612,-1.114215 -0.173673,-0.424531 -0.26059,-0.873164 -0.26059,-1.345939 0,-0.492067 0.08692,-0.945762 0.26059,-1.360644 0.173674,-0.414883 0.409942,-0.776603 0.709046,-1.085353 0.308743,-0.308749 0.665683,-0.550083 1.070918,-0.723753 0.414887,-0.173671 0.863797,-0.260306 1.346218,-0.260306 0.328045,0 0.64645,0.0481 0.955198,0.144582 0.30875,0.09648 0.602962,0.231498 0.882769,0.405171 0.0554,0.03324 0.110424,0.0682 0.165118,0.104621 0.39905,0.265737 0.93688,0.27113 1.26102,-0.06882 0.331289,-0.347453 0.359403,-0.941471 -0.01358,-1.242147 -0.116104,-0.09359 -0.239591,-0.18355 -0.370479,-0.269744 -0.395591,-0.260506 -0.839444,-0.463028 -1.33151,-0.607752 -0.49207,-0.144728 -1.003428,-0.217293 -1.534088,-0.217293 z"
       id="path103" />
    <path
       id="rect125"
       style="stroke:#343a40;stroke-width:0.202025;stroke-dasharray:none"
       d="M 24.968521,30.667048 25.427705,20.218747 25.88689,30.667048 35.968051,31.126232 25.88689,31.585417 25.427705,36.37014 24.968521,31.585417 19.816658,31.126232 Z" />
  </g>
</svg>
